REM DIRINDEX 1\3,1\2\4,1\2\5,1\2\6
REM DIRNAME cjc137,folder01,folder02,folder03,folder04,folder05
TITLE ""
FILE "075.mp3" MP3
  TRACK 01 AUDIO
    TITLE "4:cjc137_3074"
    INDEX 01 00:00:00
  TRACK 02 AUDIO
    TITLE "0:"
    INDEX 01 00:01:17
  TRACK 03 AUDIO
    TITLE "6:cjc137_3075"
    INDEX 01 00:01:28
  TRACK 04 AUDIO
    TITLE "0:"
    INDEX 01 00:02:59
  TRACK 05 AUDIO
    TITLE "5:cjc137_3076"
    INDEX 01 00:02:67
  TRACK 06 AUDIO
    TITLE "0:"
    INDEX 01 00:04:09
  TRACK 07 AUDIO
    TITLE "4:cjc137_3077"
    INDEX 01 00:05:18
  TRACK 08 AUDIO
    TITLE "0:"
    INDEX 01 00:06:24
  TRACK 09 AUDIO
    TITLE "6:cjc137_3078"
    INDEX 01 00:06:30
  TRACK 10 AUDIO
    TITLE "0:"
    INDEX 01 00:07:39
  TRACK 11 AUDIO
    TITLE "5:cjc137_3079"
    INDEX 01 00:07:41
  TRACK 12 AUDIO
    TITLE "0:"
    INDEX 01 00:08:50
  TRACK 13 AUDIO
    TITLE "4:cjc137_3080"
    INDEX 01 00:09:57
  TRACK 14 AUDIO
    TITLE "0:"
    INDEX 01 00:10:63
  TRACK 15 AUDIO
    TITLE "6:cjc137_3081"
    INDEX 01 00:10:72
  TRACK 16 AUDIO
    TITLE "0:"
    INDEX 01 00:12:05
  TRACK 17 AUDIO
    TITLE "5:cjc137_3082"
    INDEX 01 00:12:12
  TRACK 18 AUDIO
    TITLE "0:"
    INDEX 01 00:13:20
  TRACK 19 AUDIO
    TITLE "4:cjc137_3083"
    INDEX 01 00:14:33
  TRACK 20 AUDIO
    TITLE "0:"
    INDEX 01 00:15:50
  TRACK 21 AUDIO
    TITLE "6:cjc137_3084"
    INDEX 01 00:15:58
  TRACK 22 AUDIO
    TITLE "0:"
    INDEX 01 00:16:71
  TRACK 23 AUDIO
    TITLE "5:cjc137_3085"
    INDEX 01 00:17:06
  TRACK 24 AUDIO
    TITLE "0:"
    INDEX 01 00:18:23
  TRACK 25 AUDIO
    TITLE "4:cjc137_3086"
    INDEX 01 00:19:30
  TRACK 26 AUDIO
    TITLE "0:"
    INDEX 01 00:20:37
  TRACK 27 AUDIO
    TITLE "6:cjc137_3087"
    INDEX 01 00:20:43
  TRACK 28 AUDIO
    TITLE "0:"
    INDEX 01 00:21:64
  TRACK 29 AUDIO
    TITLE "5:cjc137_3088"
    INDEX 01 00:21:68
  TRACK 30 AUDIO
    TITLE "0:"
    INDEX 01 00:23:03
  TRACK 31 AUDIO
    TITLE "4:cjc137_3089"
    INDEX 01 00:24:08
  TRACK 32 AUDIO
    TITLE "0:"
    INDEX 01 00:25:17
  TRACK 33 AUDIO
    TITLE "6:cjc137_3090"
    INDEX 01 00:25:25
  TRACK 34 AUDIO
    TITLE "0:"
    INDEX 01 00:26:09
  TRACK 35 AUDIO
    TITLE "5:cjc137_3091"
    INDEX 01 00:26:15
  TRACK 36 AUDIO
    TITLE "0:"
    INDEX 01 00:27:24
  TRACK 37 AUDIO
    TITLE "4:cjc137_3092"
    INDEX 01 00:28:33
  TRACK 38 AUDIO
    TITLE "0:"
    INDEX 01 00:29:36
  TRACK 39 AUDIO
    TITLE "6:cjc137_3093"
    INDEX 01 00:29:42
  TRACK 40 AUDIO
    TITLE "0:"
    INDEX 01 00:31:04
  TRACK 41 AUDIO
    TITLE "5:cjc137_3094"
    INDEX 01 00:31:10
  TRACK 42 AUDIO
    TITLE "0:"
    INDEX 01 00:32:13
  TRACK 43 AUDIO
    TITLE "4:cjc137_3095"
    INDEX 01 00:33:22
  TRACK 44 AUDIO
    TITLE "0:"
    INDEX 01 00:34:28
  TRACK 45 AUDIO
    TITLE "6:cjc137_3096"
    INDEX 01 00:34:34
  TRACK 46 AUDIO
    TITLE "0:"
    INDEX 01 00:35:57
  TRACK 47 AUDIO
    TITLE "5:cjc137_3097"
    INDEX 01 00:35:66
  TRACK 48 AUDIO
    TITLE "0:"
    INDEX 01 00:36:72
  TRACK 49 AUDIO
    TITLE "4:cjc137_3098"
    INDEX 01 00:38:06
  TRACK 50 AUDIO
    TITLE "0:"
    INDEX 01 00:39:23
  TRACK 51 AUDIO
    TITLE "6:cjc137_3099"
    INDEX 01 00:39:29
  TRACK 52 AUDIO
    TITLE "0:"
    INDEX 01 00:40:50
  TRACK 53 AUDIO
    TITLE "5:cjc137_3100"
    INDEX 01 00:40:54
  TRACK 54 AUDIO
    TITLE "0:"
    INDEX 01 00:41:71
  TRACK 55 AUDIO
    TITLE "4:cjc137_3101"
    INDEX 01 00:43:05
  TRACK 56 AUDIO
    TITLE "0:"
    INDEX 01 00:44:09
  TRACK 57 AUDIO
    TITLE "6:cjc137_3102"
    INDEX 01 00:44:18
  TRACK 58 AUDIO
    TITLE "0:"
    INDEX 01 00:45:04
  TRACK 59 AUDIO
    TITLE "5:cjc137_3103"
    INDEX 01 00:45:12
  TRACK 60 AUDIO
    TITLE "0:"
    INDEX 01 00:46:17
  TRACK 61 AUDIO
    TITLE "4:cjc137_3104"
    INDEX 01 00:47:30
  TRACK 62 AUDIO
    TITLE "0:"
    INDEX 01 00:48:40
  TRACK 63 AUDIO
    TITLE "6:cjc137_3105"
    INDEX 01 00:48:51
  TRACK 64 AUDIO
    TITLE "0:"
    INDEX 01 00:49:33
  TRACK 65 AUDIO
    TITLE "5:cjc137_3106"
    INDEX 01 00:49:45
  TRACK 66 AUDIO
    TITLE "0:"
    INDEX 01 00:50:54
  TRACK 67 AUDIO
    TITLE "4:cjc137_3107"
    INDEX 01 00:51:71
  TRACK 68 AUDIO
    TITLE "0:"
    INDEX 01 00:52:67
  TRACK 69 AUDIO
    TITLE "6:cjc137_3108"
    INDEX 01 00:53:00
  TRACK 70 AUDIO
    TITLE "0:"
    INDEX 01 00:54:19
  TRACK 71 AUDIO
    TITLE "5:cjc137_3109"
    INDEX 01 00:54:30
  TRACK 72 AUDIO
    TITLE "0:"
    INDEX 01 00:55:28
  TRACK 73 AUDIO
    TITLE "4:cjc137_3110"
    INDEX 01 00:56:37
  TRACK 74 AUDIO
    TITLE "0:"
    INDEX 01 00:57:56
  TRACK 75 AUDIO
    TITLE "6:cjc137_3111"
    INDEX 01 00:57:58
  TRACK 76 AUDIO
    TITLE "0:"
    INDEX 01 00:58:52
  TRACK 77 AUDIO
    TITLE "5:cjc137_3112"
    INDEX 01 00:58:58
  TRACK 78 AUDIO
    TITLE "0:"
    INDEX 01 01:00:00
  TRACK 79 AUDIO
    TITLE "4:cjc137_3113"
    INDEX 01 01:01:07
  TRACK 80 AUDIO
    TITLE "0:"
    INDEX 01 01:02:12
  TRACK 81 AUDIO
    TITLE "6:cjc137_3114"
    INDEX 01 01:02:18
  TRACK 82 AUDIO
    TITLE "0:"
    INDEX 01 01:03:16
  TRACK 83 AUDIO
    TITLE "5:cjc137_3115"
    INDEX 01 01:03:22
  TRACK 84 AUDIO
    TITLE "0:"
    INDEX 01 01:04:27
